<?xml version="1.0" encoding="UTF-8"?>
<svg width="69px" height="102px" viewBox="0 0 69 102" version="1.1" xmlns="http://www.w3.org/2000/svg" xmlns:xlink="http://www.w3.org/1999/xlink">
    <!-- Generator: Sketch 54 (76480) - https://sketchapp.com -->
    <title>Group 11</title>
    <desc>Created with Sketch.</desc>
    <g id="Form-Elements" stroke="none" stroke-width="1" fill="none" fill-rule="evenodd">
        <g id="Group-11" transform="translate(1.000000, 1.000000)" stroke="#FFFFFF" stroke-width="2.5">
            <path d="M37.7971,49.6798 C37.7971,52.1968 35.7571,54.2378 33.2391,54.2378 C30.7221,54.2378 28.6821,52.1968 28.6821,49.6798 C28.6821,47.1618 30.7221,45.1218 33.2391,45.1218 C35.7571,45.1218 37.7971,47.1618 37.7971,49.6798 Z" id="Stroke-1" stroke-linecap="round"></path>
            <path d="M21.3361,49.6798 C21.3361,52.1968 19.2951,54.2378 16.7781,54.2378 C14.2611,54.2378 12.2201,52.1968 12.2201,49.6798 C12.2201,47.1618 14.2611,45.1218 16.7781,45.1218 C19.2951,45.1218 21.3361,47.1618 21.3361,49.6798 Z" id="Stroke-3" stroke-linecap="round"></path>
            <path d="M54.6418,49.6798 C54.6418,52.1968 52.6008,54.2378 50.0828,54.2378 C47.5668,54.2378 45.5258,52.1968 45.5258,49.6798 C45.5258,47.1618 47.5668,45.1218 50.0828,45.1218 C52.6008,45.1218 54.6418,47.1618 54.6418,49.6798 Z" id="Stroke-5" stroke-linecap="round"></path>
            <path d="M47.7727,0.2501 L2.4917,0.2501 C1.2527,0.2501 0.2507,1.2541 0.2507,2.4911 L0.2507,96.8681 C0.2507,98.1051 1.2527,99.1091 2.4917,99.1091 L64.3707,99.1091 C65.6087,99.1091 66.6117,98.1051 66.6117,96.8681 L66.6117,17.2541 C66.6117,16.6131 66.3377,16.0041 65.8597,15.5791 L49.2617,0.8161 C48.8517,0.4521 48.3217,0.2501 47.7727,0.2501 Z" id="Stroke-7"></path>
            <path d="M65.843,17.2042 L50.156,17.2042 C48.886,17.2042 47.856,16.1742 47.856,14.9032 L47.856,1.2062" id="Stroke-9"></path>
        </g>
    </g>
</svg>