<?xml version="1.0" encoding="UTF-8"?>
<svg width="106px" height="71px" viewBox="0 0 106 71" version="1.1" xmlns="http://www.w3.org/2000/svg" xmlns:xlink="http://www.w3.org/1999/xlink">
    <!-- Generator: Sketch 54 (76480) - https://sketchapp.com -->
    <title>Group 13</title>
    <desc>Created with Sketch.</desc>
    <g id="Form-Elements" stroke="none" stroke-width="1" fill="none" fill-rule="evenodd">
        <g id="Group-13" transform="translate(1.000000, 1.000000)" stroke="#FFFFFF" stroke-width="2.5">
            <path d="M39.4092,48.2959 C39.4092,59.1089 30.6422,67.8749 19.8292,67.8749 C9.0152,67.8749 0.2502,59.1089 0.2502,48.2959 C0.2502,37.4829 9.0152,28.7159 19.8292,28.7159 C30.6422,28.7159 39.4092,37.4829 39.4092,48.2959 Z" id="Stroke-1"></path>
            <path d="M103.002,48.2959 C103.002,59.1089 94.236,67.8749 83.423,67.8749 C72.609,67.8749 63.843,59.1089 63.843,48.2959 C63.843,37.4829 72.609,28.7159 83.423,28.7159 C94.236,28.7159 103.002,37.4829 103.002,48.2959 Z" id="Stroke-3"></path>
            <path d="M20.9248,46.6445 L37.1428,22.1925 C37.4218,21.7715 37.8928,21.5195 38.3978,21.5195 L65.7578,21.5195 C66.3228,21.5195 66.6688,22.1385 66.3738,22.6195 L51.0708,47.5775 C50.7978,48.0235 50.3118,48.2955 49.7878,48.2955 L21.8108,48.2955 C20.9628,48.2955 20.4558,47.3515 20.9248,46.6445 Z" id="Stroke-5"></path>
            <path d="M83.4229,48.2959 L67.7359,22.6449 C67.2869,21.9089 67.0489,21.0629 67.0489,20.2009 L67.0489,8.6829 C67.0489,6.8529 66.0039,5.1829 64.3579,4.3819 L55.8579,0.2499" id="Stroke-7" stroke-linecap="round"></path>
            <path d="M50.6309,48.2959 L30.9549,7.8969" id="Stroke-9"></path>
            <path d="M24.9746,7.8969 L39.4096,7.8969" id="Stroke-11" stroke-linecap="round"></path>
        </g>
    </g>
</svg>