<?xml version="1.0" encoding="UTF-8"?>
<svg width="71px" height="99px" viewBox="0 0 71 99" version="1.1" xmlns="http://www.w3.org/2000/svg" xmlns:xlink="http://www.w3.org/1999/xlink">
    <!-- Generator: Sketch 54 (76480) - https://sketchapp.com -->
    <title>Group 13</title>
    <desc>Created with Sketch.</desc>
    <g id="Form-Elements" stroke="none" stroke-width="1" fill="none" fill-rule="evenodd">
        <g id="Group-13" transform="translate(1.000000, 1.000000)" stroke="#FFFFFF" stroke-width="2.5">
            <path d="M68.2132,95.9456 L10.6922,95.9456 C4.9252,95.9456 0.2502,91.2696 0.2502,85.5026 L0.2502,10.8876 C0.2502,5.0126 5.0132,0.2506 10.8882,0.2506 L68.2132,0.2506 L68.2132,95.9456 Z" id="Stroke-1"></path>
            <path d="M0.5628,88.0423 C0.3438,86.5913 -0.0022,85.6933 1.3838,82.8483 C3.5008,78.5013 8.3988,75.7983 13.9548,75.7763 L68.2128,75.7763" id="Stroke-3"></path>
            <path d="M9.1331,0.4124 L9.4771,75.9394" id="Stroke-5"></path>
            <path d="M54.4456,28.305 L22.9506,28.305 C21.5436,28.305 20.4026,27.164 20.4026,25.757 L20.4026,19.362 C20.4026,17.954 21.5436,16.814 22.9506,16.814 L54.4456,16.814 C55.8526,16.814 56.9936,17.954 56.9936,19.362 L56.9936,25.757 C56.9936,27.164 55.8526,28.305 54.4456,28.305 Z" id="Stroke-7"></path>
            <path d="M68.2132,82.848 L8.1422,82.848" id="Stroke-9" stroke-linecap="round"></path>
            <path d="M68.2132,88.7855 L8.1422,88.7855" id="Stroke-11" stroke-linecap="round"></path>
        </g>
    </g>
</svg>