<?xml version="1.0" encoding="UTF-8"?>
<svg width="101px" height="87px" viewBox="0 0 101 87" version="1.1" xmlns="http://www.w3.org/2000/svg" xmlns:xlink="http://www.w3.org/1999/xlink">
    <!-- Generator: Sketch 54 (76480) - https://sketchapp.com -->
    <title>Group 11</title>
    <desc>Created with Sketch.</desc>
    <g id="Form-Elements" stroke="none" stroke-width="1" fill="none" fill-rule="evenodd">
        <g id="Group-11" transform="translate(1.000000, 1.000000)" stroke="#FFFFFF" stroke-width="2.5">
            <path d="M93.4857,84.1609 L5.4217,84.1609 C2.5647,84.1609 0.2507,81.8459 0.2507,78.9899 L0.2507,22.2669 C0.2507,19.4119 2.5647,17.0969 5.4217,17.0969 L93.4857,17.0969 C96.3417,17.0969 98.6567,19.4119 98.6567,22.2669 L98.6567,78.9899 C98.6567,81.8459 96.3417,84.1609 93.4857,84.1609 Z" id="Stroke-1"></path>
            <path d="M55.9711,43.367 L69.2271,43.361 C71.2301,43.361 73.1491,42.565 74.5651,41.149 L96.8261,18.887" id="Stroke-3"></path>
            <path d="M1.6889,18.5349 L24.3199,41.1659 C25.7369,42.5829 27.6589,43.3789 29.6639,43.3779 L43.1029,43.3729" id="Stroke-5"></path>
            <path d="M31.6488,16.409 L35.8718,4.981 C36.9208,2.138 39.6308,0.25 42.6628,0.25 L51.2058,0.25 L56.1778,0.25 C59.2098,0.25 61.9198,2.138 62.9688,4.981 L67.1918,16.409" id="Stroke-7"></path>
            <path d="M51.7758,52.368 L47.1308,52.368 C45.1248,52.368 43.4978,50.741 43.4978,48.734 L43.4978,39.126 C43.4978,37.119 45.1248,35.492 47.1308,35.492 L51.7758,35.492 C53.7828,35.492 55.4098,37.119 55.4098,39.126 L55.4098,48.734 C55.4098,50.741 53.7828,52.368 51.7758,52.368 Z" id="Stroke-9"></path>
        </g>
    </g>
</svg>