<?xml version="1.0" encoding="UTF-8"?>
<svg width="118px" height="62px" viewBox="0 0 118 62" version="1.1" xmlns="http://www.w3.org/2000/svg" xmlns:xlink="http://www.w3.org/1999/xlink">
    <!-- Generator: Sketch 54 (76480) - https://sketchapp.com -->
    <title>Group 35</title>
    <desc>Created with Sketch.</desc>
    <g id="Form-Elements" stroke="none" stroke-width="1" fill="none" fill-rule="evenodd">
        <g id="Group-35" transform="translate(1.000000, 1.000000)" stroke="#FFFFFF" stroke-width="2.5">
            <path d="M44.3376,51.0018 C44.3376,55.7128 40.5196,59.5308 35.8096,59.5308 C31.0986,59.5308 27.2796,55.7128 27.2796,51.0018 C27.2796,46.2918 31.0986,42.4738 35.8096,42.4738 C40.5196,42.4738 44.3376,46.2918 44.3376,51.0018 Z" id="Stroke-1"></path>
            <path d="M27.28,51.0018 C27.28,55.7128 23.462,59.5308 18.752,59.5308 C14.041,59.5308 10.222,55.7128 10.222,51.0018 C10.222,46.2918 14.041,42.4738 18.752,42.4738 C23.462,42.4738 27.28,46.2918 27.28,51.0018 Z" id="Stroke-3"></path>
            <path d="M104.0768,51.0018 C104.0768,55.7128 100.2588,59.5308 95.5478,59.5308 C90.8378,59.5308 87.0188,55.7128 87.0188,51.0018 C87.0188,46.2918 90.8378,42.4738 95.5478,42.4738 C100.2588,42.4738 104.0768,46.2918 104.0768,51.0018 Z" id="Stroke-5"></path>
            <path d="M87.0192,51.0018 L44.3372,51.0018" id="Stroke-7"></path>
            <path d="M11.3493,51.0018 C10.3033,50.9678 4.8063,50.9838 1.9603,50.9948 C1.0143,50.9988 0.2493,50.2318 0.2493,49.2858 L0.2493,9.4428 C0.2493,8.3608 1.1263,7.4838 2.2083,7.4838 L106.3093,7.4838 C107.7153,7.4838 108.9473,8.4248 109.3163,9.7818 L114.8963,30.2968 C115.3093,31.8148 115.5193,33.3828 115.5193,34.9568 L115.5193,48.9028 C115.5193,50.0628 114.5793,51.0018 113.4203,51.0018 L104.0773,51.0018" id="Stroke-9"></path>
            <path d="M0.2497,15.0565 L110.7507,15.0565" id="Stroke-11"></path>
            <path d="M0.2497,32.4452 L115.5197,32.4452" id="Stroke-13"></path>
            <path d="M7.2702,7.4838 L10.3952,1.9418 C10.9852,0.8968 12.0912,0.2498 13.2912,0.2498 L37.4442,0.2498 C38.5072,0.2498 39.4802,0.8488 39.9582,1.7978 L42.8252,7.4838" id="Stroke-15"></path>
            <path d="M82.7731,41.0458 L48.5831,41.0458" id="Stroke-17" stroke-linecap="round"></path>
            <path d="M109.487,41.0458 L115.519,41.0458" id="Stroke-19" stroke-linecap="round"></path>
            <path d="M5.9401,41.0458 L0.2501,41.0458" id="Stroke-21" stroke-linecap="round"></path>
            <path d="M15.6384,32.4452 L15.6384,15.0562" id="Stroke-23"></path>
            <path d="M32.2165,15.0565 L32.2165,32.4455" id="Stroke-25"></path>
            <path d="M47.7966,15.0565 L47.7966,32.4455" id="Stroke-27"></path>
            <path d="M63.9753,15.0565 L63.9753,32.4455" id="Stroke-29"></path>
            <path d="M79.5554,15.0565 L79.5554,32.4455" id="Stroke-31"></path>
            <path d="M95.5475,15.0565 L95.5475,32.4455" id="Stroke-33"></path>
        </g>
    </g>
</svg>