<?xml version="1.0" encoding="UTF-8"?>
<svg width="114px" height="61px" viewBox="0 0 114 61" version="1.1" xmlns="http://www.w3.org/2000/svg" xmlns:xlink="http://www.w3.org/1999/xlink">
    <!-- Generator: Sketch 54 (76480) - https://sketchapp.com -->
    <title>Group 29</title>
    <desc>Created with Sketch.</desc>
    <g id="Form-Elements" stroke="none" stroke-width="1" fill="none" fill-rule="evenodd">
        <g id="Group-29" transform="translate(1.000000, 1.000000)" stroke="#FFFFFF" stroke-width="2.5">
            <path d="M30.5908,46.3689 C30.5908,39.8899 25.3398,34.6389 18.8608,34.6389 C12.3828,34.6389 7.1308,39.8899 7.1308,46.3689 C7.1308,52.8479 12.3828,58.0989 18.8608,58.0989 C25.3398,58.0989 30.5908,52.8479 30.5908,46.3689 Z" id="Stroke-1"></path>
            <path d="M103.1835,46.3689 C103.1835,39.8899 97.9315,34.6389 91.4535,34.6389 C84.9745,34.6389 79.7235,39.8899 79.7235,46.3689 C79.7235,52.8479 84.9745,58.0989 91.4535,58.0989 C97.9315,58.0989 103.1835,52.8479 103.1835,46.3689 Z" id="Stroke-3"></path>
            <path d="M30.5908,46.3689 L79.7238,46.3689" id="Stroke-5"></path>
            <path d="M7.1308,46.3689 L1.6608,46.3689 C0.8818,46.3689 0.2498,45.7369 0.2498,44.9579 L0.2498,33.1989 C0.2498,32.1959 0.5728,31.2369 1.0348,30.3469 C2.0058,28.4739 4.1298,26.2949 6.0028,25.4829 C7.4328,24.8629 8.1458,24.7229 10.4918,24.0799 C14.6708,22.9329 17.7878,21.7729 19.9168,20.6839 C21.3288,19.9619 26.7728,13.8039 31.5378,10.7509 C37.4988,6.9319 42.7828,5.4369 47.9528,4.0169 C51.2468,3.1119 57.9088,1.4989 66.7528,1.0709 C73.1148,0.7619 79.3598,1.4219 91.5868,2.7539 C97.1918,3.3649 101.9018,3.9559 105.3148,4.4069 C105.9488,4.4909 106.3158,5.1709 106.0378,5.7479 L103.9338,8.6999 L110.9728,20.5519 C111.2168,20.8489 111.3508,21.2229 111.3518,21.6079 L111.3628,37.5859 C111.3638,38.3639 111.0388,39.1069 110.4678,39.6359 L103.1838,46.3689" id="Stroke-7"></path>
            <path d="M84.5166,6.7585 L84.5166,20.6845 L29.7326,20.6845 C29.2006,20.6845 28.9376,20.0335 29.3186,19.6625 C32.1976,16.8635 34.6816,15.2845 37.9786,13.3985 C43.7706,10.0835 47.8306,8.9125 52.8086,7.7355 C58.7416,6.3335 63.4606,6.0585 65.2126,5.9825 C69.7226,5.7885 76.6676,5.6185 84.5166,6.7585 Z" id="Stroke-9"></path>
            <path d="M61.039,6.3947 L61.039,20.8877" id="Stroke-11"></path>
            <path d="M111.2695,21.2517 L101.8035,21.2517 C101.4595,21.2517 101.2135,21.5027 101.3115,21.7527 L102.8335,25.6427 C102.9425,25.9217 103.2805,26.1127 103.6635,26.1127 L111.2695,26.1127" id="Stroke-13"></path>
            <path d="M0.7011,30.7946 L8.6731,30.5896 C9.0651,30.5796 9.4201,30.3566 9.5981,30.0066 L12.9431,23.4436" id="Stroke-15"></path>
            <path d="M0.2499,38.945 L9.3089,38.945" id="Stroke-17"></path>
            <path d="M37.6796,38.945 L72.6346,38.945" id="Stroke-19" stroke-linecap="round"></path>
            <path d="M24.5624,46.3689 C24.5624,43.2209 22.0094,40.6679 18.8604,40.6679 C15.7114,40.6679 13.1594,43.2209 13.1594,46.3689 C13.1594,49.5179 15.7114,52.0699 18.8604,52.0699 C22.0094,52.0699 24.5624,49.5179 24.5624,46.3689 Z" id="Stroke-21"></path>
            <path d="M97.1552,46.3689 C97.1552,43.2209 94.6022,40.6679 91.4532,40.6679 C88.3042,40.6679 85.7522,43.2209 85.7522,46.3689 C85.7522,49.5179 88.3042,52.0699 91.4532,52.0699 C94.6022,52.0699 97.1552,49.5179 97.1552,46.3689 Z" id="Stroke-23"></path>
            <path d="M84.5166,20.6843 L92.2026,20.6843 C93.2006,20.6843 93.8526,19.6383 93.4126,18.7423 L88.1896,8.1013 C87.9106,7.5343 87.3686,7.1433 86.7426,7.0593 L84.5166,6.7583" id="Stroke-25"></path>
            <path d="M103.8232,8.6613 L94.6202,7.8103 C94.3022,7.7813 94.0782,8.1143 94.2242,8.3973 L98.3742,16.5093 C98.5702,16.8943 98.9662,17.1373 99.3982,17.1393 L108.8592,17.1813" id="Stroke-27"></path>
        </g>
    </g>
</svg>