<?xml version="1.0" encoding="UTF-8"?>
<svg width="99px" height="76px" viewBox="0 0 99 76" version="1.1" xmlns="http://www.w3.org/2000/svg" xmlns:xlink="http://www.w3.org/1999/xlink">
    <!-- Generator: Sketch 54 (76480) - https://sketchapp.com -->
    <title>Group 9</title>
    <desc>Created with Sketch.</desc>
    <defs>
        <polygon id="path-1" points="0 75.3583 98.907 75.3583 98.907 0.0003 0 0.0003"></polygon>
    </defs>
    <g id="Form-Elements" stroke="none" stroke-width="1" fill="none" fill-rule="evenodd">
        <g id="Group-9">
            <path d="M91.0775,61.8527 L7.8295,61.8527 C4.1955,61.8527 1.2495,58.9067 1.2495,55.2727 L1.2495,7.8297 C1.2495,4.1957 4.1955,1.2497 7.8295,1.2497 L91.0775,1.2497 C94.7115,1.2497 97.6565,4.1957 97.6565,7.8297 L97.6565,55.2727 C97.6565,58.9067 94.7115,61.8527 91.0775,61.8527 Z" id="Stroke-1" stroke="#FFFFFF" stroke-width="2.5"></path>
            <path d="M1.2498,52.9357 L97.6568,52.9357" id="Stroke-3" stroke="#FFFFFF" stroke-width="2.5"></path>
            <path d="M31.4041,74.1085 L67.5021,74.1085" id="Stroke-5" stroke="#FFFFFF" stroke-width="2.5" stroke-linecap="round"></path>
            <mask id="mask-2" fill="white">
                <use xlink:href="#path-1"></use>
            </mask>
            <g id="Clip-8"></g>
            <polygon id="Stroke-7" stroke="#FFFFFF" stroke-width="2.5" mask="url(#mask-2)" points="42.494 74.1083 56.411 74.1083 56.411 61.8523 42.494 61.8523"></polygon>
        </g>
    </g>
</svg>