<?xml version="1.0" encoding="UTF-8"?>
<svg width="111px" height="84px" viewBox="0 0 111 84" version="1.1" xmlns="http://www.w3.org/2000/svg" xmlns:xlink="http://www.w3.org/1999/xlink">
    <!-- Generator: Sketch 54 (76480) - https://sketchapp.com -->
    <title>Group 33</title>
    <desc>Created with Sketch.</desc>
    <g id="Form-Elements" stroke="none" stroke-width="1" fill="none" fill-rule="evenodd">
        <g id="Group-33" transform="translate(1.000000, 1.000000)" stroke="#FFFFFF" stroke-width="2.5">
            <path d="M79.2595,0.2499 L89.1785,26.9169 C89.4185,27.5619 89.7065,28.1889 90.0405,28.7919 L98.0625,43.2499 C98.6575,44.3259 98.2975,45.6799 97.2465,46.3169 L68.2445,63.8769 C66.5615,64.8959 64.7605,65.7079 62.8825,66.2959 L60.4935,67.0439 C58.8235,67.5679 57.0135,66.8739 56.1205,65.3689 L54.3295,62.3499 C53.9895,61.7179 52.4715,58.7409 53.5375,55.2249 C54.3075,52.6909 56.1895,50.6339 58.6415,49.5019 C60.2665,48.7529 61.6885,47.6259 62.8005,46.2239 C65.7955,42.4499 68.7905,38.6759 71.7855,34.9009 C72.4925,34.0109 72.6515,32.8029 72.1975,31.7599 C68.7485,23.8139 65.2995,15.8689 61.8505,7.9229" id="Stroke-1" stroke-linecap="round"></path>
            <path d="M48.0505,7.9301 L48.0505,60.0301 C48.0505,61.3231 47.0015,62.3711 45.7085,62.3711 L9.6825,62.3711 C8.3155,62.3711 6.9535,62.1721 5.6445,61.7811 L2.5445,60.8521 C1.1895,60.4471 0.2625,59.2051 0.2505,57.7901 C0.2435,56.9621 0.2855,56.0351 0.4145,55.0331 C0.7305,52.5611 0.9645,50.7261 2.2815,49.0281 C4.5885,46.0581 8.5225,45.6871 9.8885,45.5591 C10.2235,45.5281 10.5455,45.5101 10.8535,45.5041 C12.9845,45.4611 15.0815,44.9781 17.0515,44.1621 C20.8115,42.6061 24.5705,41.0491 28.3295,39.4921 C29.5915,38.9701 30.3855,37.7061 30.3085,36.3431 C29.7735,26.8721 29.2385,17.4011 28.7025,7.9301" id="Stroke-3" stroke-linecap="round"></path>
            <path d="M72.4372,33.2328 C74.4162,33.3948 78.4052,32.6988 82.4272,31.0858 C85.1422,29.9978 87.8942,28.0378 89.1782,26.9168" id="Stroke-5"></path>
            <path d="M30.0407,37.8178 C31.9007,39.0558 34.9237,40.0658 39.0457,40.9538 C42.1997,41.6338 46.0967,41.8888 48.0507,41.7178" id="Stroke-7"></path>
            <path d="M54.8815,63.2797 L60.4815,61.7417 C61.5445,61.4497 62.5625,61.0147 63.5085,60.4487 L96.6085,40.6297" id="Stroke-9"></path>
            <path d="M0.4147,55.0326 L5.4927,56.4586 C7.0197,56.8866 8.5987,57.1036 10.1847,57.1036 L48.0507,57.1036" id="Stroke-11"></path>
            <path d="M61.9606,47.1703 L67.1806,48.8943" id="Stroke-13" stroke-linecap="round"></path>
            <path d="M66.3356,41.7695 L72.4376,43.5225" id="Stroke-15" stroke-linecap="round"></path>
            <path d="M70.4616,36.5693 L76.1856,38.4093" id="Stroke-17" stroke-linecap="round"></path>
            <path d="M26.7858,40.1323 L30.0408,43.8463" id="Stroke-19" stroke-linecap="round"></path>
            <path d="M21.0222,42.518 L24.5312,46.694" id="Stroke-21" stroke-linecap="round"></path>
            <path d="M13.7624,45.1762 L17.8004,49.2172" id="Stroke-23" stroke-linecap="round"></path>
            <path d="M0.2497,71.6547 L37.0747,71.6547" id="Stroke-25" stroke-linecap="round"></path>
            <path d="M26.7858,81.7367 L53.6088,81.7367" id="Stroke-27" stroke-linecap="round"></path>
            <path d="M64.6677,75.0776 L69.6927,75.0776" id="Stroke-29" stroke-linecap="round"></path>
            <path d="M78.6159,75.0776 L108.3449,75.0776" id="Stroke-31" stroke-linecap="round"></path>
        </g>
    </g>
</svg>