<?xml version="1.0" encoding="UTF-8"?>
<svg width="23px" height="39px" viewBox="0 0 23 39" version="1.1" xmlns="http://www.w3.org/2000/svg" xmlns:xlink="http://www.w3.org/1999/xlink">
    <!-- Generator: Sketch 54 (76480) - https://sketchapp.com -->
    <title>Fill 4</title>
    <desc>Created with Sketch.</desc>
    <g id="Form-Elements" stroke="none" stroke-width="1" fill="none" fill-rule="evenodd">
        <g id="Group-6" transform="translate(-23.000000, -16.000000)" fill="#FFFFFF">
            <path d="M37.0936,50.2141 C37.3646,52.6971 35.2756,54.7281 32.7316,54.4761 C31.3036,54.3341 30.0336,53.3581 29.5226,52.0171 C28.5226,49.3921 30.4356,46.9011 33.1006,46.8011 C34.9896,46.7311 36.8876,48.3341 37.0936,50.2141 L37.0936,50.2141 Z M29.9676,40.7491 C29.9676,37.1751 30.6276,35.7441 33.4326,33.4351 L35.6876,31.5661 C37.6126,29.9151 38.6026,28.2661 38.6026,26.5061 C38.6026,23.9771 36.7866,22.3821 33.9276,22.3821 C31.9196,22.3821 30.6446,22.8891 29.2546,24.5091 C28.1516,25.7951 26.2286,25.9841 24.9086,24.9221 L24.9076,24.9221 C23.5506,23.8291 23.3456,21.8341 24.4486,20.4851 C26.7576,17.6621 29.8176,16.2771 33.6526,16.2771 C40.5816,16.2771 45.0356,20.3471 45.0356,26.6711 C45.0356,30.0261 43.7716,32.5001 40.3066,35.6901 L37.7776,38.0551 C37.2276,38.5491 36.8976,38.8791 36.8426,38.9351 C36.4566,39.3191 36.4026,39.6501 36.4026,41.1891 L36.4026,41.2471 C36.4026,42.9771 34.9996,44.3791 33.2706,44.3791 L33.0996,44.3791 C31.3696,44.3791 29.9676,42.9771 29.9676,41.2471 L29.9676,40.7491 Z" id="Fill-4"></path>
        </g>
    </g>
</svg>