<?xml version="1.0" encoding="UTF-8"?>
<svg width="108px" height="108px" viewBox="0 0 108 108" version="1.1" xmlns="http://www.w3.org/2000/svg" xmlns:xlink="http://www.w3.org/1999/xlink">
    <!-- Generator: Sketch 54 (76480) - https://sketchapp.com -->
    <title>Group 8</title>
    <desc>Created with Sketch.</desc>
    <defs>
        <polygon id="path-1" points="0 0.6773 107.3229 0.6773 107.3229 108 0 108"></polygon>
    </defs>
    <g id="Form-Elements" stroke="none" stroke-width="1" fill="none" fill-rule="evenodd">
        <g id="Group-8" transform="translate(0.000000, -1.000000)">
            <path d="M82.0714,48.6467 C78.8914,48.6467 76.2214,51.3467 76.2214,54.5867 C76.2214,57.9467 78.8314,60.6757 82.0404,60.6757 C85.3094,60.6757 87.9504,57.9767 87.9504,54.6767 C87.9504,51.3467 85.3414,48.6467 82.0714,48.6467" id="Fill-1" fill="#FFFFFF"></path>
            <path d="M37.2511,48.6467 C34.0711,48.6467 31.4011,51.3467 31.4011,54.5867 C31.4011,57.9467 34.0121,60.6757 37.2221,60.6757 C40.4911,60.6757 43.1311,57.9767 43.1311,54.6767 C43.1311,51.3467 40.5221,48.6467 37.2511,48.6467" id="Fill-3" fill="#FFFFFF"></path>
            <g id="Group-7" transform="translate(0.000000, 0.323000)">
                <mask id="mask-2" fill="white">
                    <use xlink:href="#path-1"></use>
                </mask>
                <g id="Clip-6"></g>
                <path d="M82.0109,64.8833 C76.1319,64.8833 71.3309,60.0833 71.3309,54.1733 C71.3309,48.5943 76.2809,43.7943 82.0719,43.7943 C87.9799,43.7943 92.8409,48.5643 92.8409,54.3543 C92.8409,60.1433 87.9799,64.8833 82.0109,64.8833 L82.0109,64.8833 Z M69.8899,55.0433 C69.8899,56.8733 69.5599,58.5533 68.8999,59.9043 C67.4309,62.9933 64.1589,64.8833 60.3199,64.8833 C54.2909,64.8833 49.4309,60.2033 49.4309,54.4133 C49.4309,48.4743 54.2309,43.7943 60.3509,43.7943 C63.4699,43.7943 65.8409,44.8743 68.6909,47.5433 L65.1809,50.7833 C63.3799,48.9843 62.0909,48.3233 60.3199,48.3233 C56.9019,48.3233 54.3209,50.9343 54.3209,54.3833 C54.3209,57.7433 56.9309,60.3533 60.2899,60.3533 C62.5399,60.3533 64.0699,59.3033 64.7899,57.2033 L59.6009,57.2033 L59.6009,52.7643 L69.8899,52.7643 L69.8899,55.0433 Z M37.1919,64.8833 C31.3119,64.8833 26.5119,60.0833 26.5119,54.1733 C26.5119,48.5943 31.4619,43.7943 37.2509,43.7943 C43.1609,43.7943 48.0199,48.5643 48.0199,54.3543 C48.0199,60.1433 43.1609,64.8833 37.1919,64.8833 L37.1919,64.8833 Z M26.2719,64.3433 L14.4819,64.3433 L14.4819,44.3343 L19.3719,44.3343 L19.3719,59.8133 L26.2719,59.8133 L26.2719,64.3433 Z M53.6609,0.6773 C24.0249,0.6773 -0.0001,24.7023 -0.0001,54.3383 C-0.0001,83.9753 24.0249,108.0003 53.6609,108.0003 C83.2979,108.0003 107.3229,83.9753 107.3229,54.3383 C107.3229,24.7023 83.2979,0.6773 53.6609,0.6773 L53.6609,0.6773 Z" id="Fill-5" fill="#FFFFFF" mask="url(#mask-2)"></path>
            </g>
        </g>
    </g>
</svg>