<?xml version="1.0" encoding="UTF-8"?>
<svg width="95px" height="104px" viewBox="0 0 95 104" version="1.1" xmlns="http://www.w3.org/2000/svg" xmlns:xlink="http://www.w3.org/1999/xlink">
    <!-- Generator: Sketch 54 (76480) - https://sketchapp.com -->
    <title>Group 21</title>
    <desc>Created with Sketch.</desc>
    <g id="Form-Elements" stroke="none" stroke-width="1" fill="none" fill-rule="evenodd">
        <g id="Group-21" transform="translate(1.000000, 1.000000)" stroke="#FFFFFF" stroke-width="2.5">
            <path d="M60.6491,50.2772 L89.7211,84.2582 C90.8021,85.5222 90.6651,87.4212 89.4131,88.5142 L75.7481,100.4652 C74.4931,101.5612 72.5831,101.4232 71.4991,100.1572 L43.3471,67.2512" id="Stroke-1"></path>
            <path d="M31.4831,52.8719 L0.9701,17.1689 C-0.0989,15.9199 0.0381,14.0439 1.2751,12.9619 L14.9631,0.9909 C16.2201,-0.1071 18.1311,0.0309 19.2161,1.2989 L49.3721,36.5479" id="Stroke-3"></path>
            <path d="M29.0925,12.8426 L19.0105,21.6586" id="Stroke-5"></path>
            <path d="M41.8293,27.7313 L31.7473,36.5473" id="Stroke-7"></path>
            <path d="M68.1364,58.4803 L58.0544,67.2963" id="Stroke-9"></path>
            <path d="M81.2897,73.8553 L71.2077,82.6713" id="Stroke-11"></path>
            <path d="M31.4831,52.8719 L3.2201,80.4349 C2.6271,81.0149 2.6131,81.9649 3.1911,82.5599 L13.7991,93.5029 C14.5821,94.3099 15.8711,94.3279 16.6751,93.5439 L26.2341,84.2209 C43.5731,67.3099 75.9131,35.7709 82.2251,29.6139 C82.7611,29.0929 83.1831,28.4749 83.4781,27.7869 L92.7371,6.2129 C92.7801,6.1119 92.6791,6.0099 92.5781,6.0509 L70.7641,14.8929 C70.3801,15.0489 70.0321,15.2759 69.7361,15.5649 C66.5001,18.7219 48.2171,36.5519 31.4831,52.8719" id="Stroke-13"></path>
            <path d="M7.7419,76.368 L20.8129,89.85" id="Stroke-15"></path>
            <path d="M69.9724,16.4696 L83.0424,29.9516" id="Stroke-17"></path>
            <path d="M81.2897,9.7284 L88.5827,17.2504" id="Stroke-19"></path>
        </g>
    </g>
</svg>