<?xml version="1.0" encoding="UTF-8"?>
<svg width="67px" height="106px" viewBox="0 0 67 106" version="1.1" xmlns="http://www.w3.org/2000/svg" xmlns:xlink="http://www.w3.org/1999/xlink">
    <!-- Generator: Sketch 54 (76480) - https://sketchapp.com -->
    <title>Group 7</title>
    <desc>Created with Sketch.</desc>
    <g id="Form-Elements" stroke="none" stroke-width="1" fill="none" fill-rule="evenodd">
        <g id="Group-7" transform="translate(1.000000, 1.000000)" stroke="#FFFFFF" stroke-width="2.5">
            <path d="M22.366,103.3868 L22.366,103.3868 C10.202,103.3868 0.25,93.4348 0.25,81.2718 L0.25,62.3038 C0.25,50.1408 10.202,40.1888 22.366,40.1888 C34.529,40.1888 44.481,50.1408 44.481,62.3038 L44.481,81.2718 C44.481,93.4348 34.529,103.3868 22.366,103.3868 Z" id="Stroke-1"></path>
            <path d="M0.2498,62.3037 L44.4808,62.3037" id="Stroke-3"></path>
            <path d="M22.366,62.3037 L22.366,40.1887 C21.354,34.6527 23.866,27.9007 28.258,25.2517 C33.379,22.1647 36.451,23.8617 44.481,23.8547 C53.272,23.8467 57.22,21.7587 61.466,16.7657 C64.285,13.4497 64.809,8.5987 62.266,0.2497" id="Stroke-5" stroke-linecap="round"></path>
        </g>
    </g>
</svg>