<?xml version="1.0" encoding="UTF-8"?>
<svg width="71px" height="117px" viewBox="0 0 71 117" version="1.1" xmlns="http://www.w3.org/2000/svg" xmlns:xlink="http://www.w3.org/1999/xlink">
    <!-- Generator: Sketch 54 (76480) - https://sketchapp.com -->
    <title>Group 17</title>
    <desc>Created with Sketch.</desc>
    <defs>
        <polygon id="path-1" points="0 117.004 70.873 117.004 70.873 0 0 0"></polygon>
    </defs>
    <g id="Form-Elements" stroke="none" stroke-width="1" fill="none" fill-rule="evenodd">
        <g id="Group-17">
            <path d="M69.623,110.9001 C69.623,113.5811 67.45,115.7541 64.769,115.7541 C62.089,115.7541 59.916,113.5811 59.916,110.9001 C59.916,108.2191 62.089,106.0461 64.769,106.0461 C67.45,106.0461 69.623,108.2191 69.623,110.9001 Z" id="Stroke-1" stroke="#FFFFFF" stroke-width="2.5"></path>
            <path d="M59.0087,77.1872 L11.5497,77.1872 C5.8617,77.1872 1.2497,72.5762 1.2497,66.8882 C1.2497,65.5822 2.3087,64.5242 3.6137,64.5242 L66.9447,64.5242 C68.2497,64.5242 69.3087,65.5822 69.3087,66.8882 C69.3087,72.5762 64.6967,77.1872 59.0087,77.1872 Z" id="Stroke-3" stroke="#FFFFFF" stroke-width="2.5"></path>
            <path d="M50.4462,1.2497 L20.1122,1.2497 C13.8442,1.2497 8.7642,6.3307 8.7642,12.5977 L8.7642,42.9317 C8.7642,49.1987 13.8442,54.2787 20.1122,54.2787 L50.4462,54.2787 C56.7132,54.2787 61.7942,49.1987 61.7942,42.9317 L61.7942,12.5977 C61.7942,6.3307 56.7132,1.2497 50.4462,1.2497 Z" id="Stroke-5" stroke="#FFFFFF" stroke-width="2.5"></path>
            <path d="M6.3828,107.2526 L6.4438,102.0326 C6.4648,100.1616 7.9328,98.5476 9.8028,98.5276 L9.8448,98.5276 L35.2788,94.5616" id="Stroke-7" stroke="#FFFFFF" stroke-width="2.5"></path>
            <path d="M64.7695,107.2526 L64.7085,102.0326 C64.6875,100.1616 63.2195,98.5476 61.3485,98.5276 L61.3075,98.5276 L35.8735,94.5616" id="Stroke-9" stroke="#FFFFFF" stroke-width="2.5"></path>
            <path d="M35.2792,106.0465 L35.2792,77.1875" id="Stroke-11" stroke="#FFFFFF" stroke-width="2.5"></path>
            <mask id="mask-2" fill="white">
                <use xlink:href="#path-1"></use>
            </mask>
            <g id="Clip-14"></g>
            <polygon id="Stroke-13" stroke="#FFFFFF" stroke-width="2.5" mask="url(#mask-2)" points="31.264 64.524 39.295 64.524 39.295 54.279 31.264 54.279"></polygon>
            <path d="M40.1328,110.9001 C40.1328,113.5811 37.9598,115.7541 35.2788,115.7541 C32.5988,115.7541 30.4258,113.5811 30.4258,110.9001 C30.4258,108.2191 32.5988,106.0461 35.2788,106.0461 C37.9598,106.0461 40.1328,108.2191 40.1328,110.9001 Z" id="Stroke-15" stroke="#FFFFFF" stroke-width="2.5" mask="url(#mask-2)"></path>
            <path d="M11.2363,110.9001 C11.2363,113.5811 9.0633,115.7541 6.3823,115.7541 C3.7023,115.7541 1.5293,113.5811 1.5293,110.9001 C1.5293,108.2191 3.7023,106.0461 6.3823,106.0461 C9.0633,106.0461 11.2363,108.2191 11.2363,110.9001 Z" id="Stroke-16" stroke="#FFFFFF" stroke-width="2.5" mask="url(#mask-2)"></path>
        </g>
    </g>
</svg>