<?xml version="1.0" encoding="UTF-8"?>
<svg width="60px" height="107px" viewBox="0 0 60 107" version="1.1" xmlns="http://www.w3.org/2000/svg" xmlns:xlink="http://www.w3.org/1999/xlink">
    <!-- Generator: Sketch 54 (76480) - https://sketchapp.com -->
    <title>Group 11</title>
    <desc>Created with Sketch.</desc>
    <g id="Form-Elements" stroke="none" stroke-width="1" fill="none" fill-rule="evenodd">
        <g id="Group-11" transform="translate(1.000000, 1.000000)">
            <path d="M45.4822,104.5712 L12.0412,104.5712 C5.5292,104.5712 0.2502,99.2922 0.2502,92.7802 L0.2502,12.0412 C0.2502,5.5292 5.5292,0.2502 12.0412,0.2502 L45.4822,0.2502 C51.9942,0.2502 57.2732,5.5292 57.2732,12.0412 L57.2732,92.7802 C57.2732,99.2922 51.9942,104.5712 45.4822,104.5712 Z" id="Stroke-1" stroke="#FFFFFF" stroke-width="2.5"></path>
            <path d="M0.2498,90.7059 L57.2728,90.7059" id="Stroke-3" stroke="#FFFFFF" stroke-width="2.5"></path>
            <path d="M0.2498,12.4403 L57.2728,12.4403" id="Stroke-5" stroke="#FFFFFF" stroke-width="2.5"></path>
            <path d="M31.6756,97.8915 C31.6756,96.2825 30.3706,94.9785 28.7616,94.9785 C27.1526,94.9785 25.8476,96.2825 25.8476,97.8915 C25.8476,99.5005 27.1526,100.8055 28.7616,100.8055 C30.3706,100.8055 31.6756,99.5005 31.6756,97.8915" id="Fill-7" fill="#FFFFFF"></path>
            <path d="M32.8006,8.1259 L24.7226,8.1259 C23.9586,8.1259 23.3346,7.5019 23.3346,6.7389 C23.3346,5.9759 23.9586,5.3519 24.7226,5.3519 L32.8006,5.3519 C33.5646,5.3519 34.1886,5.9759 34.1886,6.7389 C34.1886,7.5019 33.5646,8.1259 32.8006,8.1259" id="Fill-9" fill="#FFFFFF"></path>
        </g>
    </g>
</svg>