<?xml version="1.0" encoding="UTF-8"?>
<svg width="99px" height="76px" viewBox="0 0 99 76" version="1.1" xmlns="http://www.w3.org/2000/svg" xmlns:xlink="http://www.w3.org/1999/xlink">
    <!-- Generator: Sketch 54 (76480) - https://sketchapp.com -->
    <title>Group 11</title>
    <desc>Created with Sketch.</desc>
    <defs>
        <polygon id="path-1" points="0 75.3583 98.907 75.3583 98.907 0.0003 0 0.0003"></polygon>
    </defs>
    <g id="Form-Elements" stroke="none" stroke-width="1" fill="none" fill-rule="evenodd">
        <g id="Group-11">
            <path d="M44.4886,25.6719 C45.6216,22.9299 48.7626,21.6239 51.5056,22.7569 C54.2486,23.8909 55.5536,27.0339 54.4206,29.7759 C53.2876,32.5199 50.1436,33.8219 47.4016,32.6899 C44.6606,31.5559 43.3556,28.4149 44.4886,25.6719 Z M36.8466,26.0899 C37.8006,26.9739 37.8026,28.4849 36.8466,29.3679 L34.1366,31.8829 C34.4846,33.1909 35.0066,34.4449 35.6806,35.6249 L39.3856,35.4839 C40.6876,35.4349 41.7556,36.4999 41.7066,37.8009 L41.5666,41.5069 C42.1406,41.8399 42.7586,42.1369 43.3876,42.3959 C44.0196,42.6559 44.6656,42.8829 45.3066,43.0509 L47.8236,40.3289 C48.7076,39.3729 50.2166,39.3729 51.1016,40.3239 L53.6286,43.0439 C54.9386,42.6819 56.1926,42.1619 57.3636,41.4819 L57.2186,37.7869 C57.1676,36.4879 58.2336,35.4179 59.5326,35.4669 L63.2256,35.6029 C63.5716,35.0329 63.8676,34.4169 64.1296,33.7849 C64.3896,33.1559 64.6136,32.5099 64.7726,31.8639 L62.0596,29.3529 C61.1066,28.4689 61.1036,26.9569 62.0596,26.0729 L64.7696,23.5599 C64.4236,22.2509 63.9006,20.9969 63.2156,19.8099 L59.5206,19.9559 C58.2186,20.0079 57.1516,18.9429 57.1986,17.6409 L57.3336,13.9469 C56.7666,13.6019 56.1486,13.3079 55.5186,13.0469 C54.8866,12.7849 54.2416,12.5599 53.5946,12.4029 L51.0836,15.1129 C50.1996,16.0689 48.6906,16.0689 47.8046,15.1149 L45.2906,12.4029 C43.9806,12.7649 42.7256,13.2839 41.5436,13.9609 L41.6876,17.6549 C41.7386,18.9539 40.6736,20.0249 39.3746,19.9759 L35.6806,19.8399 C35.3356,20.4089 35.0396,21.0249 34.7786,21.6559 C34.5166,22.2859 34.2926,22.9329 34.1346,23.5779 L36.8466,26.0899 Z" id="Stroke-1" stroke="#FFFFFF" stroke-width="2"></path>
            <path d="M91.0775,61.8526 L7.8295,61.8526 C4.1955,61.8526 1.2495,58.9066 1.2495,55.2726 L1.2495,7.8296 C1.2495,4.1956 4.1955,1.2496 7.8295,1.2496 L91.0775,1.2496 C94.7115,1.2496 97.6565,4.1956 97.6565,7.8296 L97.6565,55.2726 C97.6565,58.9066 94.7115,61.8526 91.0775,61.8526 Z" id="Stroke-3" stroke="#FFFFFF" stroke-width="2.5"></path>
            <path d="M1.2498,52.9366 L97.6568,52.9366" id="Stroke-5" stroke="#FFFFFF" stroke-width="2.5"></path>
            <path d="M31.4041,74.1084 L67.5021,74.1084" id="Stroke-7" stroke="#FFFFFF" stroke-width="2.5" stroke-linecap="round"></path>
            <mask id="mask-2" fill="white">
                <use xlink:href="#path-1"></use>
            </mask>
            <g id="Clip-10"></g>
            <polygon id="Stroke-9" stroke="#FFFFFF" stroke-width="2.5" mask="url(#mask-2)" points="42.494 74.1083 56.411 74.1083 56.411 61.8523 42.494 61.8523"></polygon>
        </g>
    </g>
</svg>