<?xml version="1.0" encoding="UTF-8"?>
<svg width="86px" height="93px" viewBox="0 0 86 93" version="1.1" xmlns="http://www.w3.org/2000/svg" xmlns:xlink="http://www.w3.org/1999/xlink">
    <!-- Generator: Sketch 54 (76480) - https://sketchapp.com -->
    <title>Group 35</title>
    <desc>Created with Sketch.</desc>
    <g id="Form-Elements" stroke="none" stroke-width="1" fill="none" fill-rule="evenodd">
        <g id="Group-35" transform="translate(1.000000, 1.000000)">
            <path d="M66.7875,26.5919 L26.1805,11.0119 C25.0145,10.5649 23.7055,11.1479 23.2585,12.3139 L0.4005,71.8879 C-0.0465,73.0539 0.5355,74.3629 1.7025,74.8099 L42.3085,90.3899 C43.4755,90.8369 44.7835,90.2549 45.2315,89.0879 L68.0885,29.5149 C68.5365,28.3479 67.9535,27.0399 66.7875,26.5919 Z" id="Stroke-1" stroke="#FFFFFF" stroke-width="2.5"></path>
            <path d="M23.765,30.6535 L55.801,42.9455" id="Stroke-3" stroke="#FFFFFF" stroke-width="1.5" stroke-linecap="round"></path>
            <path d="M20.2621,39.4298 L52.2991,51.7218" id="Stroke-5" stroke="#FFFFFF" stroke-width="1.5" stroke-linecap="round"></path>
            <path d="M16.7602,48.1613 L43.1572,58.3553" id="Stroke-7" stroke="#FFFFFF" stroke-width="1.5" stroke-linecap="round"></path>
            <path d="M13.0453,57.4533 L32.7783,65.0243" id="Stroke-9" stroke="#FFFFFF" stroke-width="1.5" stroke-linecap="round"></path>
            <path d="M9.7377,66.5734 L29.8057,74.2734" id="Stroke-11" stroke="#FFFFFF" stroke-width="1.5" stroke-linecap="round"></path>
            <g id="Group-16" transform="translate(43.000000, 17.790500)">
                <path d="M27.1664,19.1051 L39.6144,6.5321 C39.8754,6.2671 39.8744,5.8411 39.6104,5.5801 L34.7704,0.7591 C34.4144,0.4041 33.8364,0.4061 33.4814,0.7641 L29.2714,5.0161 C21.6354,12.7301 7.3924,27.1171 4.6114,29.9251 C4.3754,30.1641 4.1914,30.4441 4.0644,30.7541 L0.0854,40.4941 C0.0664,40.5401 0.1124,40.5841 0.1574,40.5651 L9.8624,36.4321 C10.0334,36.3591 10.1874,36.2541 10.3184,36.1231 C11.7444,34.6831 19.7964,26.5491 27.1664,19.1051" id="Fill-13" fill="#0567FF"></path>
                <path d="M27.1664,19.1051 L39.6144,6.5321 C39.8754,6.2671 39.8744,5.8411 39.6104,5.5801 L34.7704,0.7591 C34.4144,0.4041 33.8364,0.4061 33.4814,0.7641 L29.2714,5.0161 C21.6354,12.7301 7.3924,27.1171 4.6114,29.9251 C4.3754,30.1641 4.1914,30.4441 4.0644,30.7541 L0.0854,40.4941 C0.0664,40.5401 0.1124,40.5841 0.1574,40.5651 L9.8624,36.4321 C10.0334,36.3591 10.1874,36.2541 10.3184,36.1231 C11.7444,34.6831 19.7964,26.5491 27.1664,19.1051" id="Stroke-15" stroke="#FFFFFF" stroke-width="2.5"></path>
            </g>
            <g id="Group-20" transform="translate(47.000000, 46.790500)">
                <path d="M6.2055,6.7194 L0.2425,0.7814" id="Fill-17" fill="#0567FF"></path>
                <path d="M6.2055,6.7194 L0.2425,0.7814" id="Stroke-19" stroke="#FFFFFF" stroke-width="2.5"></path>
            </g>
            <path d="M26.7143,22.5363 L58.7513,34.8283" id="Stroke-21" stroke="#FFFFFF" stroke-width="1.5" stroke-linecap="round"></path>
            <path d="M39.5629,16.048 C39.5629,24.773 32.4899,31.846 23.7649,31.846 C15.0399,31.846 7.9659,24.773 7.9659,16.048 C7.9659,7.323 15.0399,0.25 23.7649,0.25 C32.4899,0.25 39.5629,7.323 39.5629,16.048" id="Fill-23" fill="#0567FF"></path>
            <path d="M39.5629,16.048 C39.5629,24.773 32.4899,31.846 23.7649,31.846 C15.0399,31.846 7.9659,24.773 7.9659,16.048 C7.9659,7.323 15.0399,0.25 23.7649,0.25 C32.4899,0.25 39.5629,7.323 39.5629,16.048 Z" id="Stroke-25" stroke="#FFFFFF" stroke-width="2.5"></path>
            <path d="M31.058,18.9396 C31.058,18.5026 30.997,18.1096 30.877,17.7576 C30.757,17.4066 30.567,17.1066 30.306,16.8596 C30.118,16.6576 29.888,16.5016 29.618,16.3906 C29.347,16.2806 29.049,16.2246 28.724,16.2246 C28.405,16.2246 28.111,16.2786 27.84,16.3856 C27.57,16.4936 27.334,16.6476 27.132,16.8496 C26.911,17.0576 26.73,17.3496 26.59,17.7236 C26.451,18.0976 26.38,18.4776 26.38,18.8616 C26.38,19.2786 26.444,19.6606 26.571,20.0086 C26.698,20.3576 26.901,20.6656 27.181,20.9316 C27.376,21.1276 27.608,21.2756 27.874,21.3766 C28.141,21.4766 28.418,21.5276 28.704,21.5276 C28.991,21.5276 29.278,21.4736 29.564,21.3666 C29.85,21.2586 30.084,21.1146 30.267,20.9316 C30.528,20.6776 30.724,20.3876 30.858,20.0626 C30.992,19.7376 31.058,19.3626 31.058,18.9396 L31.058,18.9396 Z M32.435,18.8616 C32.435,19.3886 32.34,19.8946 32.152,20.3796 C31.963,20.8656 31.684,21.2766 31.314,21.6156 C30.969,21.9476 30.588,22.1996 30.172,22.3726 C29.756,22.5446 29.265,22.6306 28.7,22.6306 C28.179,22.6306 27.695,22.5406 27.246,22.3576 C26.798,22.1746 26.417,21.9276 26.106,21.6156 C25.747,21.2636 25.475,20.8536 25.287,20.3846 C25.097,19.9166 25.003,19.4016 25.003,18.8416 C25.003,18.3146 25.091,17.8246 25.267,17.3726 C25.442,16.9196 25.689,16.5246 26.008,16.1856 C26.32,15.8536 26.71,15.5866 27.178,15.3846 C27.646,15.1826 28.16,15.0826 28.719,15.0826 C29.272,15.0826 29.779,15.1796 30.241,15.3756 C30.703,15.5706 31.085,15.8276 31.391,16.1466 C31.71,16.4656 31.963,16.8596 32.152,17.3286 C32.34,17.7966 32.435,18.3076 32.435,18.8616 L32.435,18.8616 Z M28.412,9.7986 C27.696,10.8536 26.92,12.0206 26.087,13.2996 C25.254,14.5796 24.512,15.7166 23.861,16.7126 C22.806,18.3406 21.862,19.8206 21.029,21.1516 C20.196,22.4826 19.717,23.2466 19.593,23.4416 L18.607,22.7486 C18.717,22.5796 19.2,21.8376 20.052,20.5266 C20.905,19.2146 21.859,17.7516 22.913,16.1366 C23.558,15.1406 24.295,14.0006 25.125,12.7136 C25.955,11.4276 26.722,10.2286 27.425,9.1156 L28.412,9.7986 Z M20.863,13.2266 C20.863,12.7906 20.802,12.3966 20.682,12.0446 C20.562,11.6936 20.371,11.3936 20.111,11.1466 C19.922,10.9446 19.693,10.7886 19.422,10.6776 C19.152,10.5676 18.854,10.5116 18.529,10.5116 C18.209,10.5116 17.915,10.5656 17.645,10.6726 C17.374,10.7806 17.139,10.9346 16.937,11.1366 C16.715,11.3446 16.535,11.6366 16.395,12.0106 C16.255,12.3846 16.185,12.7646 16.185,13.1486 C16.185,13.5656 16.248,13.9476 16.375,14.2956 C16.502,14.6446 16.705,14.9526 16.986,15.2186 C17.181,15.4146 17.412,15.5626 17.679,15.6636 C17.946,15.7636 18.223,15.8146 18.509,15.8146 C18.795,15.8146 19.082,15.7606 19.369,15.6536 C19.655,15.5456 19.889,15.4016 20.072,15.2186 C20.332,14.9646 20.529,14.6746 20.662,14.3496 C20.796,14.0246 20.863,13.6496 20.863,13.2266 L20.863,13.2266 Z M22.24,13.1486 C22.24,13.6756 22.145,14.1816 21.956,14.6676 C21.768,15.1526 21.489,15.5636 21.119,15.9026 C20.774,16.2346 20.393,16.4866 19.977,16.6596 C19.561,16.8326 19.07,16.9186 18.504,16.9186 C17.984,16.9186 17.499,16.8276 17.051,16.6446 C16.603,16.4616 16.222,16.2146 15.911,15.9026 C15.552,15.5506 15.28,15.1406 15.091,14.6716 C14.902,14.2036 14.808,13.6886 14.808,13.1286 C14.808,12.6016 14.896,12.1116 15.072,11.6596 C15.246,11.2076 15.494,10.8116 15.813,10.4726 C16.124,10.1406 16.515,9.8746 16.983,9.6716 C17.451,9.4696 17.964,9.3696 18.524,9.3696 C19.077,9.3696 19.583,9.4666 20.045,9.6626 C20.507,9.8576 20.89,10.1146 21.196,10.4336 C21.515,10.7526 21.768,11.1466 21.956,11.6156 C22.145,12.0846 22.24,12.5946 22.24,13.1486 L22.24,13.1486 Z" id="Fill-27" fill="#FFFFFF"></path>
            <path d="M31.058,18.9396 C31.058,18.5026 30.997,18.1096 30.877,17.7576 C30.757,17.4066 30.567,17.1066 30.306,16.8596 C30.118,16.6576 29.888,16.5016 29.618,16.3906 C29.347,16.2806 29.049,16.2246 28.724,16.2246 C28.405,16.2246 28.111,16.2786 27.84,16.3856 C27.57,16.4936 27.334,16.6476 27.132,16.8496 C26.911,17.0576 26.73,17.3496 26.59,17.7236 C26.451,18.0976 26.38,18.4776 26.38,18.8616 C26.38,19.2786 26.444,19.6606 26.571,20.0086 C26.698,20.3576 26.901,20.6656 27.181,20.9316 C27.376,21.1276 27.608,21.2756 27.874,21.3766 C28.141,21.4766 28.418,21.5276 28.704,21.5276 C28.991,21.5276 29.278,21.4736 29.564,21.3666 C29.85,21.2586 30.084,21.1146 30.267,20.9316 C30.528,20.6776 30.724,20.3876 30.858,20.0626 C30.992,19.7376 31.058,19.3626 31.058,18.9396 Z M32.435,18.8616 C32.435,19.3886 32.34,19.8946 32.152,20.3796 C31.963,20.8656 31.684,21.2766 31.314,21.6156 C30.969,21.9476 30.588,22.1996 30.172,22.3726 C29.756,22.5446 29.265,22.6306 28.7,22.6306 C28.179,22.6306 27.695,22.5406 27.246,22.3576 C26.798,22.1746 26.417,21.9276 26.106,21.6156 C25.747,21.2636 25.475,20.8536 25.287,20.3846 C25.097,19.9166 25.003,19.4016 25.003,18.8416 C25.003,18.3146 25.091,17.8246 25.267,17.3726 C25.442,16.9196 25.689,16.5246 26.008,16.1856 C26.32,15.8536 26.71,15.5866 27.178,15.3846 C27.646,15.1826 28.16,15.0826 28.719,15.0826 C29.272,15.0826 29.779,15.1796 30.241,15.3756 C30.703,15.5706 31.085,15.8276 31.391,16.1466 C31.71,16.4656 31.963,16.8596 32.152,17.3286 C32.34,17.7966 32.435,18.3076 32.435,18.8616 Z M28.412,9.7986 C27.696,10.8536 26.92,12.0206 26.087,13.2996 C25.254,14.5796 24.512,15.7166 23.861,16.7126 C22.806,18.3406 21.862,19.8206 21.029,21.1516 C20.196,22.4826 19.717,23.2466 19.593,23.4416 L18.607,22.7486 C18.717,22.5796 19.2,21.8376 20.052,20.5266 C20.905,19.2146 21.859,17.7516 22.913,16.1366 C23.558,15.1406 24.295,14.0006 25.125,12.7136 C25.955,11.4276 26.722,10.2286 27.425,9.1156 L28.412,9.7986 Z M20.863,13.2266 C20.863,12.7906 20.802,12.3966 20.682,12.0446 C20.562,11.6936 20.371,11.3936 20.111,11.1466 C19.922,10.9446 19.693,10.7886 19.422,10.6776 C19.152,10.5676 18.854,10.5116 18.529,10.5116 C18.209,10.5116 17.915,10.5656 17.645,10.6726 C17.374,10.7806 17.139,10.9346 16.937,11.1366 C16.715,11.3446 16.535,11.6366 16.395,12.0106 C16.255,12.3846 16.185,12.7646 16.185,13.1486 C16.185,13.5656 16.248,13.9476 16.375,14.2956 C16.502,14.6446 16.705,14.9526 16.986,15.2186 C17.181,15.4146 17.412,15.5626 17.679,15.6636 C17.946,15.7636 18.223,15.8146 18.509,15.8146 C18.795,15.8146 19.082,15.7606 19.369,15.6536 C19.655,15.5456 19.889,15.4016 20.072,15.2186 C20.332,14.9646 20.529,14.6746 20.662,14.3496 C20.796,14.0246 20.863,13.6496 20.863,13.2266 Z M22.24,13.1486 C22.24,13.6756 22.145,14.1816 21.956,14.6676 C21.768,15.1526 21.489,15.5636 21.119,15.9026 C20.774,16.2346 20.393,16.4866 19.977,16.6596 C19.561,16.8326 19.07,16.9186 18.504,16.9186 C17.984,16.9186 17.499,16.8276 17.051,16.6446 C16.603,16.4616 16.222,16.2146 15.911,15.9026 C15.552,15.5506 15.28,15.1406 15.091,14.6716 C14.902,14.2036 14.808,13.6886 14.808,13.1286 C14.808,12.6016 14.896,12.1116 15.072,11.6596 C15.246,11.2076 15.494,10.8116 15.813,10.4726 C16.124,10.1406 16.515,9.8746 16.983,9.6716 C17.451,9.4696 17.964,9.3696 18.524,9.3696 C19.077,9.3696 19.583,9.4666 20.045,9.6626 C20.507,9.8576 20.89,10.1146 21.196,10.4336 C21.515,10.7526 21.768,11.1466 21.956,11.6156 C22.145,12.0846 22.24,12.5946 22.24,13.1486 Z" id="Stroke-29" stroke="#FFFFFF" stroke-width="0.5"></path>
            <path d="M41.099,78.0958 C41.708,77.8908 42.127,77.4928 42.354,76.9028 C42.593,76.2778 42.536,75.7168 42.181,75.2218 C41.826,74.7268 41.245,74.1988 40.438,73.6358 L38.771,77.9798 C39.713,78.2618 40.489,78.2998 41.099,78.0958 M38.509,70.3248 C38.835,70.8088 39.372,71.3208 40.122,71.8608 L41.789,67.5168 C40.905,67.2578 40.169,67.2438 39.581,67.4768 C38.994,67.7098 38.588,68.1168 38.367,68.6958 C38.135,69.2978 38.183,69.8408 38.509,70.3248 M41.753,79.1938 C40.832,79.5508 39.698,79.5118 38.351,79.0748 L37.584,81.0728 L36.716,80.7398 L37.476,78.7588 C36.648,78.3878 35.914,77.9168 35.277,77.3468 C34.638,76.7768 34.189,76.1888 33.93,75.5838 L34.814,74.7868 C35.068,75.3358 35.471,75.8698 36.024,76.3868 C36.576,76.9058 37.202,77.3248 37.903,77.6468 L39.656,73.0758 C38.932,72.5738 38.346,72.1068 37.901,71.6758 C37.454,71.2448 37.138,70.7458 36.952,70.1758 C36.764,69.6058 36.809,68.9618 37.084,68.2428 C37.427,67.3518 38.039,66.7258 38.921,66.3668 C39.803,66.0068 40.901,66.0208 42.215,66.4058 L42.982,64.4078 L43.851,64.7408 L43.091,66.7208 C43.742,66.9968 44.341,67.3498 44.887,67.7788 C45.433,68.2078 45.872,68.6648 46.204,69.1518 L45.376,70.0098 C45.017,69.5268 44.605,69.0948 44.139,68.7168 C43.672,68.3388 43.183,68.0388 42.671,67.8158 L40.905,72.4198 C41.681,72.9568 42.301,73.4378 42.763,73.8608 C43.225,74.2838 43.557,74.7858 43.759,75.3688 C43.961,75.9508 43.924,76.6018 43.649,77.3198 C43.307,78.2108 42.674,78.8358 41.753,79.1938" id="Fill-31" fill="#FFFFFF"></path>
            <path d="M41.099,78.0958 C41.708,77.8908 42.127,77.4928 42.354,76.9028 C42.593,76.2778 42.536,75.7168 42.181,75.2218 C41.826,74.7268 41.245,74.1988 40.438,73.6358 L38.771,77.9798 C39.713,78.2618 40.489,78.2998 41.099,78.0958 Z M38.509,70.3248 C38.835,70.8088 39.372,71.3208 40.122,71.8608 L41.789,67.5168 C40.905,67.2578 40.169,67.2438 39.581,67.4768 C38.994,67.7098 38.588,68.1168 38.367,68.6958 C38.135,69.2978 38.183,69.8408 38.509,70.3248 Z M41.753,79.1938 C40.832,79.5508 39.698,79.5118 38.351,79.0748 L37.584,81.0728 L36.716,80.7398 L37.476,78.7588 C36.648,78.3878 35.914,77.9168 35.277,77.3468 C34.638,76.7768 34.189,76.1888 33.93,75.5838 L34.814,74.7868 C35.068,75.3358 35.471,75.8698 36.024,76.3868 C36.576,76.9058 37.202,77.3248 37.903,77.6468 L39.656,73.0758 C38.932,72.5738 38.346,72.1068 37.901,71.6758 C37.454,71.2448 37.138,70.7458 36.952,70.1758 C36.764,69.6058 36.809,68.9618 37.084,68.2428 C37.427,67.3518 38.039,66.7258 38.921,66.3668 C39.803,66.0068 40.901,66.0208 42.215,66.4058 L42.982,64.4078 L43.851,64.7408 L43.091,66.7208 C43.742,66.9968 44.341,67.3498 44.887,67.7788 C45.433,68.2078 45.872,68.6648 46.204,69.1518 L45.376,70.0098 C45.017,69.5268 44.605,69.0948 44.139,68.7168 C43.672,68.3388 43.183,68.0388 42.671,67.8158 L40.905,72.4198 C41.681,72.9568 42.301,73.4378 42.763,73.8608 C43.225,74.2838 43.557,74.7858 43.759,75.3688 C43.961,75.9508 43.924,76.6018 43.649,77.3198 C43.307,78.2108 42.674,78.8358 41.753,79.1938 Z" id="Stroke-33" stroke="#FFFFFF" stroke-width="0.5"></path>
        </g>
    </g>
</svg>