<?xml version="1.0" encoding="UTF-8"?>
<svg width="104px" height="88px" viewBox="0 0 104 88" version="1.1" xmlns="http://www.w3.org/2000/svg" xmlns:xlink="http://www.w3.org/1999/xlink">
    <!-- Generator: Sketch 54 (76480) - https://sketchapp.com -->
    <title>Group 9</title>
    <desc>Created with Sketch.</desc>
    <g id="Form-Elements" stroke="none" stroke-width="1" fill="none" fill-rule="evenodd">
        <g id="Group-9" transform="translate(1.000000, 0.000000)" stroke="#FFFFFF" stroke-width="2.201">
            <polyline id="Stroke-1" points="55.0198 40.6036 34.0178 18.9296 23.8658 28.7906 45.7428 51.3636"></polyline>
            <g id="Group-8" transform="translate(0.000000, 0.314400)">
                <path d="M58.2219,63.8713 L78.9529,85.1913 C79.8419,86.1053 81.3169,86.1273 82.2319,85.2393 L89.0579,78.6083 C89.9729,77.7203 89.9939,76.2443 89.1059,75.3303 L67.5399,53.1513" id="Stroke-2"></path>
                <path d="M25.7874,4.4152 L0.8334,28.8592 C-0.1296,29.8032 -0.1456,31.3492 0.7984,32.3122 L8.0984,39.7652 C9.1414,40.8302 10.8494,40.8482 11.9144,39.8052 L49.3164,3.1662 C50.2664,2.2362 49.4904,0.6322 48.1724,0.7982 L28.0274,3.3332 C27.1834,3.4392 26.3954,3.8192 25.7874,4.4152 Z" id="Stroke-4"></path>
                <path d="M28.3714,71.1984 L65.9524,27.6144 C63.8674,21.7114 64.9034,14.8864 69.2674,9.7884 C74.4054,3.7854 82.6184,1.9704 89.5894,4.6784 C90.1484,4.8954 90.3334,5.5974 89.9424,6.0544 L79.4754,18.2844 C77.7334,20.3194 77.9714,23.3814 80.0064,25.1224 C82.0414,26.8644 85.1024,26.6264 86.8454,24.5924 L97.3054,12.3704 C97.6954,11.9134 98.4194,11.9884 98.7204,12.5094 C102.4514,18.9724 101.9204,27.3504 96.7904,33.3444 C92.3824,38.4944 85.7124,40.5604 79.5044,39.3354 L41.8224,82.8314 C38.5854,86.5674 32.9214,86.9444 29.2174,83.6704 C25.5684,80.4454 25.1914,74.8864 28.3714,71.1984 Z" id="Stroke-6"></path>
            </g>
        </g>
    </g>
</svg>